<?xml version="1.0" encoding="UTF-8"?>
<!DOCTYPE svg PUBLIC "-//W3C//DTD SVG 1.1//EN" "http://www.w3.org/Graphics/SVG/1.1/DTD/svg11.dtd">
<!-- Creator: CorelDRAW X8 -->
<svg xmlns="http://www.w3.org/2000/svg" xml:space="preserve" width="7.08661in" height="7.08661in" version="1.1" style="shape-rendering:geometricPrecision; text-rendering:geometricPrecision; image-rendering:optimizeQuality; fill-rule:evenodd; clip-rule:evenodd"
viewBox="0 0 7087 7087"
 xmlns:xlink="http://www.w3.org/1999/xlink">
 <defs>
  <style type="text/css">
   <![CDATA[
    .str0 {stroke:#F6B331;stroke-width:110.236;stroke-linecap:round;stroke-linejoin:round}
    .fil0 {fill:none}
   ]]>
  </style>
 </defs>
 <g id="Layer_x0020_1">
  <metadata id="CorelCorpID_0Corel-Layer"/>
  <g id="_3041213172256">
   <g>
    <g>
     <line class="fil0 str0" x1="1752" y1="4078" x2="2353" y2= "4078" />
     <line class="fil0 str0" x1="2821" y1="4662" x2="2198" y2= "4662" />
     <line class="fil0 str0" x1="1901" y1="4662" x2="1587" y2= "4662" />
     <line class="fil0 str0" x1="699" y1="5197" x2="1002" y2= "5197" />
     <line class="fil0 str0" x1="1300" y1="5197" x2="2198" y2= "5197" />
     <line class="fil0 str0" x1="1300" y1="4662" x2="440" y2= "4662" />
     <line class="fil0 str0" x1="1410" y1="4078" x2="1201" y2= "4078" />
     <path class="fil0 str0" d="M6536 4414l0 1532c0,122 -99,221 -220,221l-4360 0c-121,0 -221,-99 -221,-221l0 -308"/>
     <path class="fil0 str0" d="M1735 3604l0 -447c0,-121 100,-220 221,-220l4365 0c122,0 221,99 221,220l0 783"/>
     <g>
      <line class="fil0 str0" x1="4739" y1="4954" x2="6492" y2= "6090" />
      <line class="fil0 str0" x1="3532" y1="4954" x2="1780" y2= "6090" />
      <line class="fil0 str0" x1="1780" y1="3036" x2="4133" y2= "4783" />
      <line class="fil0 str0" x1="6492" y1="3036" x2="4133" y2= "4783" />
     </g>
     <line class="fil0 str0" x1="4271" y1="5720" x2="3472" y2= "5720" />
     <line class="fil0 str0" x1="4613" y1="5720" x2="4971" y2= "5720" />
    </g>
    <g>
     <line class="fil0 str0" x1="4409" y1="2369" x2="5412" y2= "2369" />
     <line class="fil0 str0" x1="6443" y1="1890" x2="6139" y2= "1890" />
     <line class="fil0 str0" x1="5842" y1="1890" x2="4943" y2= "1890" />
     <line class="fil0 str0" x1="5787" y1="2369" x2="6646" y2= "2369" />
     <path class="fil0 str0" d="M617 2672l0 -1532c0,-121 99,-220 220,-220l4365 0c122,0 221,99 221,220l0 309"/>
     <g>
      <line class="fil0 str0" x1="1322" y1="1460" x2="2998" y2= "2535" />
      <line class="fil0 str0" x1="4717" y1="1443" x2="3009" y2= "2535" />
     </g>
    </g>
   </g>
  </g>
 </g>
</svg>
